<svg xmlns="http://www.w3.org/2000/svg" viewBox="0 0 792 612"><defs><style>.cls-1{fill:#fff;}.cls-2,.cls-4{fill:#2b2b2b;}.cls-3{fill:#f7aa1f;}.cls-4{font-size:33.22px;font-family:PTSans-Regular, PT Sans;letter-spacing:-0.04em;}.cls-5{letter-spacing:-0.09em;}.cls-6,.cls-8{letter-spacing:-0.04em;}.cls-7,.cls-8{font-family:PTSans-Bold, PT Sans;font-weight:700;}.cls-7{letter-spacing:-0.12em;}</style></defs><title>dna-logo</title><g id="Layer_4" data-name="Layer 4"><rect class="cls-1" width="792" height="612"/></g><g id="Layer_5" data-name="Layer 5"><path class="cls-2" d="M121,68.71l-18.23,0-.93,0-4-.08A3.45,3.45,0,0,0,94,72.19l-.06,3.11,14.54,38.18s1.43,9.74,10.39,9.93l28.1-.55s7.48-.13,6.95,5.11l-.25,55.68,6.18.12L160,128.1s1.09-12.25-13-11.59l-21.61.07s-8.84.57-10.81-3L100.08,75.42c.35-1,1.64-.57,1.64-.57l.93,0,18.23,0"/><rect class="cls-2" x="231.57" y="64.04" width="7.91" height="16.79" rx="0.56" ry="0.56" transform="translate(-0.93 3.11) rotate(-0.75)"/><path class="cls-3" d="M119,74.9l-.08,8.46a8.27,8.27,0,0,0,8.2,8.29l99.15.26a8.27,8.27,0,0,0,8.29-8.2l.1-23a8.27,8.27,0,0,0-8.2-8.29l-99.15-.26a8.27,8.27,0,0,0-8.29,8.2l0,8.34"/><rect class="cls-1" x="124.6" y="57.39" width="105.33" height="15.61" rx="1" ry="1" transform="translate(0.64 -1.71) rotate(0.56)"/><rect class="cls-1" x="124.46" y="60.83" width="2.73" height="23.89" rx="0.27" ry="0.27" transform="matrix(1, 0.04, -0.04, 1, 3.16, -5.21)"/><rect class="cls-1" x="227.26" y="62.75" width="2.73" height="23.89" rx="0.27" ry="0.27" transform="translate(458.21 146.37) rotate(179.25)"/><polygon class="cls-3" points="180.22 148.58 169.06 130.38 169.06 98.77 180.22 98.77 180.22 148.58"/><rect class="cls-3" x="207.83" y="98.77" width="11.16" height="32.35"/><polygon class="cls-3" points="199.6 180.82 188.45 161.1 188.45 98.77 199.6 98.77 199.6 180.82"/><path class="cls-2" d="M135.49,184.6c0,23.64-10.19,41.19-28.73,46.14-4.81,1.27-11.61,2-20.38,2H54V146.81c0-6.65,3.26-10.19,9.91-10.33H91.61C122.18,136.48,135.49,153.89,135.49,184.6ZM91.61,153.32H73.35v62H89.06c19.53,0,26.33-10.47,26.33-30.71C115.39,165.35,109.44,153.32,91.61,153.32Z"/><path class="cls-2" d="M154.73,136.48h10.62l39.2,66.1v-66.1h19.39v96.24H203.42l-39.21-66.1v66.1H144.82V146.81C144.82,141.29,149.21,136.48,154.73,136.48Z"/><path class="cls-2" d="M291.31,136.48l34.53,96.24H305L298.67,213H261.44l-6.37,19.67H234l32.13-89.87q2.12-6.37,9.34-6.37Zm-24.63,60.29h26.47l-13.3-40.9Z"/><text class="cls-4" transform="translate(52.44 265.85) scale(1.08 1)">CUS<tspan class="cls-5" x="54.29" y="0">T</tspan><tspan class="cls-6" x="69.8" y="0">OM </tspan><tspan class="cls-7" x="123.69" y="0">P</tspan><tspan class="cls-8" x="138.81" y="0">AINTING</tspan></text><path class="cls-2" d="M332.57,270.28a4.43,4.43,0,1,1,4.43-4.43A4.43,4.43,0,0,1,332.57,270.28Zm0-8a3.55,3.55,0,1,0,3.55,3.55A3.55,3.55,0,0,0,332.57,262.3Z"/><path class="cls-2" d="M334.79,264.9l-1.27.21a.81.81,0,0,0-.29-.52,1,1,0,0,0-.59-.17,1,1,0,0,0-.77.3,1.44,1.44,0,0,0-.29,1,1.66,1.66,0,0,0,.29,1.11,1,1,0,0,0,.78.32.93.93,0,0,0,.6-.19,1.09,1.09,0,0,0,.33-.65l1.27.2a2,2,0,0,1-.76,1.19,2.53,2.53,0,0,1-1.5.4,2.37,2.37,0,0,1-1.71-.61,2.57,2.57,0,0,1,0-3.39,2.4,2.4,0,0,1,1.73-.61,2.55,2.55,0,0,1,1.42.35A1.92,1.92,0,0,1,334.79,264.9Z"/></g></svg>